<svg width="102" height="99" viewBox="0 0 102 99" fill="none" xmlns="http://www.w3.org/2000/svg">
<g clip-path="url(#clip0_200_626)">
<path fill-rule="evenodd" clip-rule="evenodd" d="M66.2441 5.34774C72.9515 10.8588 78.4486 25.6418 72.5405 26.7217C63.6497 28.2284 64.0664 24.0478 63.4742 19.6596C61.4762 6.1827 39.4847 7.50461 40.9518 22.2848C43.5534 49.2515 36.3465 46.4616 22.1627 57.7544C20.57 59.0433 20.7056 61.5926 22.1441 62.9833C23.6397 64.4155 25.8203 64.2178 27.3973 62.9346L36.8931 55.112C36.5207 55.4815 36.3351 55.861 36.084 56.2105L19.7266 71.4518C18.1097 72.9298 18.1925 75.5522 19.7666 77.0374C20.5257 77.7432 21.5238 78.133 22.5586 78.1277C23.5935 78.1224 24.5876 77.7223 25.3394 77.0087L41.8095 61.7516C41.5893 62.0171 41.4055 62.3109 41.2629 62.6252L24.1378 80.9286C23.4139 81.6958 23.0195 82.7178 23.0395 83.7742C23.0595 84.8305 23.4924 85.8367 24.2448 86.5757C25.8146 88.0623 28.3834 88.0423 29.7933 86.411L47.2381 67.8269C47.4654 67.6855 47.6683 67.508 47.8389 67.3013L49.5443 65.5827L36.0083 82.0529C34.2887 84.0952 33.9119 86.9137 35.6159 88.5063C37.267 90.1591 40.3253 90.0631 42.0906 87.9621L57.1807 69.9537C56.7988 71.1449 56.5073 72.3634 56.3087 73.5987C55.8149 76.4373 57.5374 80.6164 59.5825 82.0171C60.9482 82.9208 61.8658 83.2702 63.9108 83.0955C67.8824 82.62 65.0639 79.3446 64.269 76.8268L77.5196 73.2979C80.5878 72.4816 83.7075 73.6287 84.8705 76.5146C86.0322 79.4219 84.598 82.9494 81.6838 83.8732C70.8579 86.971 44.0999 96.9362 35.1307 98.4142C-3.42081 104.421 -7.53083 62.4419 9.70416 53.5194C29.6549 43.0988 31.747 42.2867 29.7577 23.1728C28.3877 4.92381 50.4648 -7.66226 66.2456 5.34774H66.2441ZM67.901 60.9166L89.022 52.2276C109.691 40.8359 103.52 19.2586 85.5441 14.8789C82.0392 13.9853 78.6099 13.8879 75.3361 14.5624C76.121 16.5317 76.3722 17.4798 76.4778 19.8028C76.6447 21.4143 76.6581 23.0381 76.5178 24.6522C78.4643 24.0492 80.478 24.0593 82.5701 24.5362C85.6397 25.3139 87.916 27.0039 89.5828 29.6391C97.9313 44.9177 70.1344 45.4619 67.891 60.9166H67.901ZM67.3102 62.2973C65.5677 66.253 64.4917 70.5882 64.0664 75.5149C64.0464 75.7011 64.0664 75.9446 64.0464 76.1279L93.6543 66.3475C96.734 65.3364 98.2738 61.6614 97.0793 58.5134C95.8592 55.3741 92.4213 53.9834 89.2831 55.0762L67.3102 62.2973Z" fill="#3EB860"/>
</g>
<defs>
<clipPath id="clip0_200_626">
<rect width="102" height="99" fill="white"/>
</clipPath>
</defs>
</svg>
